<svg xmlns="http://www.w3.org/2000/svg" xmlns:xlink="http://www.w3.org/1999/xlink" width="512" height="512" viewBox="0 0 512 512">
  <defs>
    <clipPath id="clip-js">
      <rect width="512" height="512"/>
    </clipPath>
  </defs>
  <g id="js" clip-path="url(#clip-js)">
    <g id="사각형_2" data-name="사각형 2" transform="translate(131 131)" fill="none" stroke="#ffd243" stroke-width="5">
      <rect width="250" height="250" stroke="none"/>
      <rect x="2.5" y="2.5" width="245" height="245" fill="none"/>
    </g>
    <path id="패스_10" data-name="패스 10" d="M37.891-112.635V-56.4a59.682,59.682,0,0,1-.639,9.052A27.053,27.053,0,0,1,35.122-40a18.063,18.063,0,0,1-8.04,8.626A27.647,27.647,0,0,1,13.717-28.4a40.662,40.662,0,0,1-5.964-.426A33.854,33.854,0,0,1,2-30.207V-42.028a48.329,48.329,0,0,0,6.39,1.864,21.877,21.877,0,0,0,4.047.479,20.606,20.606,0,0,0,5.218-.639,8.269,8.269,0,0,0,4.26-2.769,11.474,11.474,0,0,0,2.077-5.218,53.048,53.048,0,0,0,.479-7.881v-56.443ZM97.316-93.891a32.639,32.639,0,0,0-9.105-6.337,25.441,25.441,0,0,0-10.809-2.29q-13.1,0-13.1,9.478a9.6,9.6,0,0,0,2.929,7.4,27.075,27.075,0,0,0,8.04,4.846L82.62-77.6q9.691,4.26,14.963,10.011a20.043,20.043,0,0,1,5.272,14.057,25.284,25.284,0,0,1-2.13,10.756,20,20,0,0,1-6.017,7.561,26.109,26.109,0,0,1-9.265,4.42,45.931,45.931,0,0,1-11.874,1.438,44.551,44.551,0,0,1-12.993-1.81,28.247,28.247,0,0,1-10.65-5.964V-50.973a.932.932,0,0,1,.532-.905.762.762,0,0,1,.958.16A46.443,46.443,0,0,0,56-47.139,25.982,25.982,0,0,0,61-43.732a25.071,25.071,0,0,0,5.8,2.13,29.738,29.738,0,0,0,6.869.745q7.881,0,11.342-2.929t3.461-9a10.532,10.532,0,0,0-3.195-7.827,30.863,30.863,0,0,0-9.265-5.8L68.669-69.61a52.339,52.339,0,0,1-7.295-3.834,26.655,26.655,0,0,1-5.751-4.846,20.914,20.914,0,0,1-3.781-6.23,22.292,22.292,0,0,1-1.384-8.2,20.7,20.7,0,0,1,1.917-9.159,17.668,17.668,0,0,1,5.431-6.55,25.682,25.682,0,0,1,8.413-3.994,39.459,39.459,0,0,1,10.756-1.384,49.3,49.3,0,0,1,5.431.319,40.884,40.884,0,0,1,5.751,1.065,29.488,29.488,0,0,1,5.591,2.077,23.627,23.627,0,0,1,5.059,3.355v12.354a.932.932,0,0,1-.532.905A.762.762,0,0,1,97.316-93.891Z" transform="translate(266.986 397.098)" fill="none" stroke="#fff" stroke-width="5"/>
  </g>
</svg>
