<svg xmlns="http://www.w3.org/2000/svg" xmlns:xlink="http://www.w3.org/1999/xlink" width="512" height="512" viewBox="0 0 512 512">
  <defs>
    <clipPath id="clip-python">
      <rect width="512" height="512"/>
    </clipPath>
  </defs>
  <g id="python" clip-path="url(#clip-python)">
    <path id="패스_23" data-name="패스 23" d="M5293.327-359.447h-45.592v-26.832s3.272-15.706,42.538-15.925,50.828,10.471,51.264,24.214,0,43.847,0,43.847.655,26.832-24.868,26.614-49.52,0-49.52,0-26.177,2.836-25.522,24.432,0,25.3,0,25.3H5215.45s-17.887-5.672-18.542-49.737,29.449-45.156,29.449-45.156h66.97Z" transform="translate(-5039 561)" fill="none" stroke="#3779af" stroke-width="5"/>
    <path id="패스_24" data-name="패스 24" d="M5293.327-359.447h-45.592v-26.832s3.272-15.706,42.538-15.925,50.828,10.471,51.264,24.214,0,43.847,0,43.847.655,26.832-24.868,26.614-49.52,0-49.52,0-26.177,2.836-25.522,24.432,0,25.3,0,25.3H5215.45s-17.887-5.672-18.542-49.737,29.449-45.156,29.449-45.156h66.97Z" transform="translate(5550.628 -48.999) rotate(180)" fill="none" stroke="#ffdb4c" stroke-width="5"/>
  </g>
</svg>
