<svg xmlns="http://www.w3.org/2000/svg" xmlns:xlink="http://www.w3.org/1999/xlink" width="512" height="512" viewBox="0 0 512 512">
  <defs>
    <clipPath id="clip-rust">
      <rect width="512" height="512"/>
    </clipPath>
  </defs>
  <g id="rust" clip-path="url(#clip-rust)">
    <path id="path3" d="M253.518,134.51l-9.885-6.119q-.125-1.444-.281-2.88l8.495-7.923a3.4,3.4,0,0,0-1.127-5.676l-10.859-4.061c-.272-.94-.558-1.874-.85-2.8l6.774-9.408a3.4,3.4,0,0,0-2.214-5.347L232.12,88.43c-.445-.868-.909-1.723-1.377-2.571L235.555,75.3a3.4,3.4,0,0,0-3.213-4.812l-11.622.4q-.9-1.127-1.836-2.227l2.67-11.32a3.4,3.4,0,0,0-4.092-4.094l-11.318,2.668q-1.1-.931-2.232-1.836l.407-11.622a3.4,3.4,0,0,0-4.81-3.215l-10.56,4.814c-.853-.468-1.708-.931-2.571-1.379l-1.867-11.453a3.4,3.4,0,0,0-5.345-2.214l-9.415,6.774q-1.39-.442-2.8-.848l-4.061-10.861a3.4,3.4,0,0,0-5.674-1.132l-7.923,8.5c-.956-.106-1.919-.2-2.88-.281L140.3,21.278a3.4,3.4,0,0,0-5.784,0l-6.119,9.887c-.963.079-1.926.175-2.882.281l-7.926-8.5a3.4,3.4,0,0,0-5.674,1.132l-4.061,10.861c-.94.27-1.872.556-2.8.848l-9.413-6.774a3.4,3.4,0,0,0-5.347,2.214L88.424,42.679c-.864.448-1.719.909-2.571,1.379l-10.56-4.814a3.4,3.4,0,0,0-4.81,3.215l.4,11.622c-.751.6-1.5,1.215-2.232,1.836L57.339,53.248a3.4,3.4,0,0,0-4.094,4.094l2.666,11.32q-.928,1.1-1.831,2.227l-11.622-.4A3.4,3.4,0,0,0,39.242,75.3l4.814,10.562c-.468.848-.931,1.7-1.379,2.571L31.227,90.293a3.4,3.4,0,0,0-2.214,5.347l6.774,9.408c-.295.929-.58,1.863-.85,2.8l-10.861,4.061a3.4,3.4,0,0,0-1.127,5.676l8.5,7.923c-.106.956-.2,1.919-.281,2.88l-9.885,6.119a3.4,3.4,0,0,0,0,5.784l9.885,6.119q.121,1.444.281,2.88l-8.5,7.926a3.4,3.4,0,0,0,1.127,5.674l10.861,4.061c.27.94.556,1.874.85,2.8l-6.774,9.41a3.4,3.4,0,0,0,2.216,5.345l11.449,1.863c.448.868.907,1.723,1.379,2.576l-4.814,10.558a3.4,3.4,0,0,0,3.215,4.812l11.617-.407c.605.756,1.215,1.5,1.836,2.232l-2.666,11.323a3.4,3.4,0,0,0,4.094,4.085l11.318-2.666c.736.625,1.48,1.233,2.232,1.831l-.4,11.624a3.4,3.4,0,0,0,4.81,3.212l10.56-4.812c.85.472,1.705.931,2.571,1.379l1.867,11.446a3.4,3.4,0,0,0,5.347,2.218l9.408-6.778c.929.295,1.863.583,2.8.853l4.061,10.857a3.4,3.4,0,0,0,5.674,1.127l7.926-8.5c.956.11,1.919.2,2.882.288l6.119,9.885a3.4,3.4,0,0,0,5.784,0l6.119-9.885c.963-.086,1.923-.178,2.88-.288l7.923,8.5a3.4,3.4,0,0,0,5.674-1.127l4.061-10.857c.94-.27,1.874-.558,2.8-.853l9.41,6.778a3.4,3.4,0,0,0,5.345-2.218l1.867-11.446c.864-.448,1.719-.913,2.571-1.379l10.56,4.812a3.4,3.4,0,0,0,4.81-3.212l-.4-11.624c.751-.6,1.5-1.206,2.229-1.831l11.318,2.666a3.4,3.4,0,0,0,4.092-4.085l-2.666-11.323c.621-.736,1.233-1.476,1.831-2.232l11.622.407a3.4,3.4,0,0,0,3.212-4.812l-4.812-10.558c.47-.853.931-1.708,1.377-2.576l11.451-1.863a3.4,3.4,0,0,0,2.214-5.345l-6.774-9.41c.292-.929.578-1.863.85-2.8l10.859-4.061a3.4,3.4,0,0,0,1.127-5.674l-8.495-7.926c.1-.956.2-1.919.281-2.88l9.885-6.119a3.4,3.4,0,0,0,0-5.784Zm-66.16,82a7,7,0,1,1,8.3-5.381A7.005,7.005,0,0,1,187.358,216.513ZM184,193.8a6.373,6.373,0,0,0-7.57,4.9l-3.509,16.378a86.313,86.313,0,0,1-71.789-.344l-3.507-16.378a6.372,6.372,0,0,0-7.568-4.9l-14.459,3.1a85.786,85.786,0,0,1-7.476-8.812h70.352c.8,0,1.327-.144,1.327-.868V161.992c0-.724-.531-.868-1.327-.868H117.9V145.349h22.254c2.031,0,10.861.58,13.685,11.867.884,3.471,2.826,14.762,4.153,18.378,1.323,4.054,6.709,12.153,12.447,12.153h35.057a7.189,7.189,0,0,0,1.271-.126,86.385,86.385,0,0,1-7.973,9.354L184,193.8ZM86.7,216.171a7,7,0,1,1,5.368-8.315A6.989,6.989,0,0,1,86.7,216.171ZM60.009,107.951a6.993,6.993,0,1,1-9.226-3.563A7,7,0,0,1,60.009,107.951Zm-8.2,19.444L66.868,120.7a6.385,6.385,0,0,0,3.242-8.423l-3.1-7.014h12.2v54.991H54.594a86.181,86.181,0,0,1-3.28-23.612,87.153,87.153,0,0,1,.493-9.248Zm66.1-5.341V105.845h29.052c1.5,0,10.6,1.734,10.6,8.535,0,5.647-6.976,7.671-12.713,7.671H117.9Zm105.581,14.589q0,3.226-.236,6.391h-8.832c-.884,0-1.24.58-1.24,1.447v4.056c0,9.548-5.383,11.624-10.1,12.153-4.493.506-9.473-1.881-10.088-4.63-2.65-14.906-7.066-18.09-14.04-23.59,8.654-5.5,17.66-13.6,17.66-24.456,0-11.718-8.034-19.1-13.509-22.719a38.329,38.329,0,0,0-18.483-6.079H73.271a85.972,85.972,0,0,1,48.161-27.18l10.767,11.3a6.367,6.367,0,0,0,9.012.207l12.047-11.523A86.162,86.162,0,0,1,212.19,93.987l-8.247,18.627a6.392,6.392,0,0,0,3.244,8.423l15.878,7.053q.412,4.228.418,8.553ZM132.2,42.427a7,7,0,1,1-.232,9.9A6.985,6.985,0,0,1,132.2,42.427Zm81.843,65.863a6.992,6.992,0,1,1,3.554,9.242A6.985,6.985,0,0,1,214.046,108.29Z" transform="translate(118.332 118.333)" fill="none" stroke="#fff" stroke-width="5"/>
  </g>
</svg>
