<svg xmlns="http://www.w3.org/2000/svg" xmlns:xlink="http://www.w3.org/1999/xlink" width="512" height="512" viewBox="0 0 512 512">
  <defs>
    <clipPath id="clip-swift">
      <rect width="512" height="512"/>
    </clipPath>
  </defs>
  <g id="swift" clip-path="url(#clip-swift)">
    <g id="bird" transform="translate(141 141)">
      <path id="패스_48" data-name="패스 48" d="M54.69,30C53.98,40.57,66,50,50.135,48.932S0,32.727.439,26.348,24.161,8.71,40.027,9.779,55.407,19.426,54.69,30Zm128.73,102.673a6.18,6.18,0,0,0-3.608.608c-14.874,1.484-20.632-12.059-20.632-12.059-2.809-2.15-6.276-12.853-10.166-7.773l1.2,8.969c1.2,8.969,16.442,20.626,16.442,20.626l-7.773,10.166a6.4,6.4,0,0,0,10.166,7.773l4.306-5.63-.249,1.593a6.4,6.4,0,0,0,12.641,2.009L188.75,140a6.417,6.417,0,0,0-5.329-7.325Zm-40.163,3.986a6.3,6.3,0,0,0-3.659.115c-14.938-.525-18.834-14.714-18.834-14.714-2.5-2.508-4.5-13.582-9.033-9.065l-.019,9.046c-.019,9.046,13.531,22.641,13.531,22.641l-9.065,9.033a6.4,6.4,0,0,0,9.027,9.065l5.022-5-.467,1.548a6.4,6.4,0,0,0,12.258,3.685l5.515-18.38a6.372,6.372,0,0,0-4.274-7.971Z" transform="translate(2.35 52.398)" fill="#ffac33"/>
      <path id="패스_49" data-name="패스 49" d="M119.239,7.157a5.744,5.744,0,0,0-6.717,1.561c-.345.358-27.029,40.343-92.968,31.629-2.175-.288,20.082,76.565,20.466,76.527.793-.09,19.64-2.354,39.281-16.333,18.028-12.827,40.2-38.327,43.484-86.993A6.381,6.381,0,0,0,119.239,7.157Z" transform="translate(104.731 35.891)" fill="#dd2e44"/>
      <path id="패스_50" data-name="패스 50" d="M115.229,43.686a5.989,5.989,0,0,0-6.263-3.013c-8.272,1.887-20.453,3.474-28.981,2.9C39.316,40.832,20.1,17.155,19.9,16.957c-1.759-1.8,2.981,73.9,5.22,74.057,58.819,3.966,88.682-38.558,89.93-40.368A6.426,6.426,0,0,0,115.229,43.686Z" transform="translate(105.338 91.353)" fill="#dd2e44"/>
      <path id="패스_51" data-name="패스 51" d="M100.091,44.028c-2.373,35.25,8.419,63.086-26.831,60.706S8.357,73.258,10.73,38,102.471,8.778,100.091,44.028Z" transform="translate(57.198 77.627)" fill="#dd2e44"/>
      <path id="패스_52" data-name="패스 52" d="M120.509,62.773c-2.258,33.491-25.091,59.222-58.576,56.963A60.775,60.775,0,0,1,5.379,55.013C7.637,21.522,36.292.992,69.783,3.251c25.6,1.721,52.715,29.959,50.726,59.522Z" transform="translate(28.278 16.633)" fill="#dd2e44"/>
      <circle id="타원_10" data-name="타원 10" cx="12.795" cy="12.795" r="12.795" transform="translate(55.466 44.712)" fill="#292f33"/>
      <path id="패스_53" data-name="패스 53" d="M18.629,41.892S67.442,78.025,97.875,13.365c2.533-5.387,10.78,5.073.633,26.626s-52.3,41.2-77.026,9.827c-5.214-6.621-2.853-7.927-2.853-7.927Z" transform="translate(97.671 64.595)" fill="#a0041e"/>
      <path id="패스_54" data-name="패스 54" d="M15.327,6.2S55.286,7.824,65.215,3.147s.87,18.757-20.869,24.24S15.327,6.2,15.327,6.2Z" transform="translate(82.727 13.678)" fill="#dd2e44"/>
      <path id="패스_55" data-name="패스 55" d="M17.655,9.51s28.8.87,38.73-3.8.87,18.757-20.869,24.24S17.655,9.51,17.655,9.51Z" transform="translate(93.841 27.518)" fill="#dd2e44"/>
    </g>
  </g>
</svg>
