<svg xmlns="http://www.w3.org/2000/svg" xmlns:xlink="http://www.w3.org/1999/xlink" width="512" height="512" viewBox="0 0 512 512">
  <defs>
    <clipPath id="clip-ts">
      <rect width="512" height="512"/>
    </clipPath>
  </defs>
  <g id="ts" clip-path="url(#clip-ts)">
    <path id="패스_9" data-name="패스 9" d="M39.932-29.747H26.53v-71.622H.154v-11.258H66.415v11.258H39.932Zm78.055-64.009a32.86,32.86,0,0,0-9.167-6.379,25.613,25.613,0,0,0-10.883-2.305q-13.188,0-13.188,9.542A9.665,9.665,0,0,0,87.7-85.447a27.259,27.259,0,0,0,8.095,4.878l7.4,3.217q9.757,4.289,15.064,10.078a20.179,20.179,0,0,1,5.307,14.153,25.456,25.456,0,0,1-2.144,10.829,20.133,20.133,0,0,1-6.058,7.612,26.286,26.286,0,0,1-9.328,4.45,46.242,46.242,0,0,1-11.955,1.447A44.853,44.853,0,0,1,81-30.6a28.439,28.439,0,0,1-10.722-6V-50.547a.938.938,0,0,1,.536-.911.767.767,0,0,1,.965.161,46.759,46.759,0,0,0,4.61,4.61,26.158,26.158,0,0,0,5.039,3.431,25.241,25.241,0,0,0,5.843,2.144,29.94,29.94,0,0,0,6.916.751q7.934,0,11.419-2.948t3.485-9.06a10.6,10.6,0,0,0-3.217-7.881,31.072,31.072,0,0,0-9.328-5.843l-7.4-3.217A52.7,52.7,0,0,1,81.8-73.17a26.837,26.837,0,0,1-5.79-4.878A21.055,21.055,0,0,1,72.2-84.321a22.443,22.443,0,0,1-1.394-8.256,20.841,20.841,0,0,1,1.93-9.221,17.788,17.788,0,0,1,5.468-6.594,25.856,25.856,0,0,1,8.47-4.021,39.726,39.726,0,0,1,10.829-1.394,49.631,49.631,0,0,1,5.468.322,41.16,41.16,0,0,1,5.79,1.072,29.688,29.688,0,0,1,5.629,2.091,23.787,23.787,0,0,1,5.093,3.377v12.437a.938.938,0,0,1-.536.911A.767.767,0,0,1,117.987-93.756Z" transform="translate(246.846 397.098)" fill="none" stroke="#fff" stroke-width="5"/>
    <g id="사각형_2" data-name="사각형 2" transform="translate(131 131)" fill="none" stroke="#0073c0" stroke-width="5">
      <rect width="250" height="250" stroke="none"/>
      <rect x="2.5" y="2.5" width="245" height="245" fill="none"/>
    </g>
  </g>
</svg>
